<?xml version="1.0" encoding="UTF-8"?>
<svg width="85pt" height="80pt" fill="white" version="1.1" viewBox="0 0 700 700" xmlns="http://www.w3.org/2000/svg">
 <path d="m479.13 17.5c-4.832-0.015625-8.7656 3.8828-8.7852 8.7148-0.015625 4.8594 3.9297 8.8047 8.7891 8.7852h15.586l-126.14 119.15c2.168 1.3555 4.2422 2.8945 6.1172 4.7695 2.4102 2.4141 4.2383 5.1719 5.793 8.0508l126.98-119.96v16.336c0.015625 4.8047 3.9102 8.6953 8.7148 8.7148 4.8398 0.027344 8.7812-3.875 8.8008-8.7148l0.003906-37.137c-0.019531-4.8359-3.9648-8.7422-8.8008-8.7148zm-234.37 70.035c-4.5703 0.050782-8.9375 1.8945-12.168 5.1289-6.832 6.8359-6.832 17.91 0 24.746 6.832 6.832 17.914 6.832 24.746 0 6.832-6.8359 6.832-17.91 0-24.746-3.332-3.332-7.8672-5.1797-12.578-5.1289zm297.74 26.215c-4.8047 0.015625-8.6953 3.9102-8.7148 8.7148l-0.015625 244.9c19.375 0.015625 37.367 5.8125 52.465 15.672l-0.015625-260.57c-0.019531-4.832-3.957-8.7344-8.7852-8.7148zm-265.01 3.9648c-1.6875 4.4141-4.2422 8.5469-7.7578 12.066-0.79688 0.79688-1.7266 1.3828-2.582 2.0859l50.586 38.418c1.6914-4.1484 4.1875-8.0312 7.5195-11.363 0.97266-0.97266 2.0859-1.7109 3.1445-2.5469zm-62.582 4.9727c-24.109 24.074-48.164 48.211-72.102 72.426-3.375 3.4297-3.3438 8.9453 0.066406 12.34 3.4414 3.4219 9.0039 3.3945 12.406-0.066406 23.93-24.207 47.914-48.305 71.98-72.34-2.5078-1.4609-4.9258-3.1328-7.0586-5.2656-2.1484-2.1484-3.832-4.5664-5.2969-7.0938zm134.86 43.492c-4.5703 0.050781-8.9375 1.8945-12.168 5.125-6.832 6.8359-6.832 17.914 0 24.746 6.8359 6.8438 17.926 6.8438 24.762 0 6.832-6.832 6.832-17.91 0-24.746-3.3359-3.332-7.8789-5.1836-12.594-5.1211zm-78.512 216.79-0.015625-190.5c-0.019531-4.832-3.9531-8.7344-8.7852-8.7148h-34.949c-4.8047 0.015625-8.6953 3.9102-8.7148 8.7148l0.007813 174.9c19.383 0 37.359 5.7734 52.457 15.602zm166.25-190.46c-4.8047 0.015625-8.6953 3.9102-8.7148 8.7148l-0.015625 181.84c10.258 6.7031 19.098 15.352 26.129 25.359 7.0781-10.074 16.02-18.715 26.352-25.445l-0.015625-181.75c-0.019531-4.832-3.9531-8.7344-8.7852-8.7148zm-61.25 43.715c-0.015625-4.832-3.9531-8.7344-8.7852-8.7148h-34.934c-4.8047 0.015625-8.6953 3.9102-8.7148 8.7148l-0.015625 146.71c15.086-9.8086 33.062-15.57 52.434-15.57zm-253.75 43.82c-4.8047 0.015625-8.6953 3.9102-8.7148 8.7148l-0.015625 96.25h49.629c0.9375-0.66406 1.875-1.3203 2.8359-1.9492l-0.019531-94.301c-0.015625-4.832-3.9531-8.7344-8.7852-8.7148zm96.32 104.83c-43.527 0-78.82 35.289-78.82 78.816 0 43.531 35.293 78.82 78.82 78.82 43.527 0 78.801-35.289 78.801-78.816s-35.277-78.82-78.801-78.82zm157.55 0c-29.754 0-55.648 16.504-69.059 40.844 5.0117 11.656 7.8086 24.48 7.8086 37.973 0 13.484-2.7891 26.32-7.793 37.973 13.414 24.34 39.289 40.848 69.043 40.848 43.527 0 78.816-35.289 78.816-78.816s-35.293-78.82-78.816-78.82zm157.31 0c-29.738 0-55.59 16.492-69.008 40.812 5.0156 11.664 7.8242 24.5 7.8242 38.004 0 13.508-2.8086 26.359-7.8281 38.027 13.422 24.309 39.277 40.793 69.012 40.793 43.523 0 78.816-35.289 78.816-78.82 0-43.527-35.293-78.816-78.816-78.816zm-437.47 17.637c-4.8047 0.015625-8.6953 3.9102-8.7148 8.7148v17.566c0.015625 4.8086 3.9102 8.7188 8.7148 8.7188h29.977c3.6602-12.973 9.8945-24.871 18.234-35zm122.55 8.7148c4.832-0.015625 8.7656 3.8828 8.7852 8.7148h17.5c4.8125 0.007812 8.7148 3.9023 8.7344 8.7148 0.015625 4.8398-3.8945 8.7734-8.7344 8.7852h-17.43v17.449c14.352 0.042969 26.164 11.918 26.164 26.301 0 14.383-11.852 26.25-26.234 26.25-0.015625 4.832-3.9531 8.7344-8.7852 8.7148-4.8047-0.015625-8.6797-3.9102-8.6992-8.7148h-17.5c-4.832-0.015626-8.7344-3.9531-8.7148-8.7852 0.007813-4.8125 3.9023-8.7148 8.7148-8.7344h17.551v-17.535c-14.414 0.042969-26.25-11.852-26.25-26.234s11.816-26.215 26.199-26.215c0.015625-4.8047 3.8945-8.6992 8.6992-8.7148zm166.95 0c12.848 0 24.383 6.5664 32.23 16.285 3.0156 3.75 2.4336 9.2344-1.2969 12.27-3.7578 3.0508-9.2812 2.4688-12.32-1.3008-5.0938-6.3125-11.602-9.7578-18.609-9.7578-8.082 0-15.766 5.0664-20.867 13.191h11.434c4.832-0.015625 8.7656 3.8828 8.7852 8.7148-0.015624 4.832-3.9531 8.7344-8.7852 8.7148h-17.156c-0.13281 1.4531-0.33984 2.8711-0.33984 4.3906 0 1.5195 0.19922 2.9375 0.33984 4.3906h17.156c4.832-0.015625 8.7656 3.8828 8.7852 8.7148 0.015626 4.8594-3.9258 8.8047-8.7852 8.7852h-11.398c5.1016 8.0859 12.773 13.109 20.832 13.109 7.043 0 13.559-3.4492 18.664-9.8086 3.0273-3.793 8.5625-4.3984 12.34-1.3516 3.7773 3.043 4.3594 8.5781 1.3008 12.34-7.8594 9.8008-19.406 16.348-32.305 16.348-18.469 0-33.379-12.91-40.266-30.625h-4.1875c-4.832-0.015625-8.7344-3.9531-8.7148-8.7852 0.015625-4.8047 3.9102-8.6953 8.7148-8.7148h0.20703c-0.097656-1.4531-0.20703-2.918-0.20703-4.3906 0-1.4766 0.10547-2.9375 0.20703-4.3906h-0.20703c-4.8047-0.019531-8.6953-3.9141-8.7148-8.7188 0.015625-4.8047 3.9102-8.6953 8.7148-8.7148h4.1523c6.8711-17.75 21.805-30.695 40.297-30.691zm121.77 4.3047c2.75 0.015625 5.332 1.3164 6.9727 3.5195l19.242 25.633 19.242-25.633c2.9023-3.875 8.4023-4.6562 12.27-1.7422 3.875 2.9023 4.6562 8.4023 1.7422 12.27l-15.723 20.988c4.8203 0 8.7305 3.8789 8.75 8.6992 0.015626 4.8594-3.9258 8.8047-8.7852 8.7852h-8.7148v8.7148h8.7148c4.8594-0.015625 8.8047 3.9258 8.7852 8.7852-0.007812 4.8398-3.9453 8.75-8.7852 8.7344h-8.7148v8.8359c-0.015624 4.8438-3.9531 8.75-8.7852 8.7344-4.8047-0.015625-8.6953-3.918-8.7148-8.7344v-8.8203h-8.7852c-4.8125-0.015624-8.707-3.9219-8.7148-8.7344-0.015624-4.832 3.8828-8.7656 8.7148-8.7852h8.7852v-8.7148h-8.7852c-4.832-0.015626-8.7344-3.9531-8.7148-8.7852 0.015626-4.8047 3.9102-8.6953 8.7148-8.7148l-15.75-20.984c-2.9023-3.8828-2.082-9.3828 1.8125-12.27 1.3867-1.0469 3.0508-1.6602 4.7852-1.7617 0.16406-0.007812 0.28125-0.015624 0.44531-0.015624zm-297.36 21.91c-5.0078 0-8.7148 3.7422-8.7148 8.7148 0 4.9727 3.7422 8.8008 8.7148 8.7852zm-113.88 17.57c-4.8047 0.015625-8.6953 3.9102-8.7148 8.7148v17.566c0.015625 4.8086 3.9062 8.6992 8.7148 8.7188h29.992c-2.3789-8.375-3.7266-17.184-3.7266-26.32 0-2.9297 0.1875-5.8125 0.44531-8.6797zm131.32 17.434v17.5c5.0039 0 8.7148-3.7773 8.7148-8.75s-3.6797-8.7344-8.7148-8.75zm-131.34 35.066c-4.8047 0.015625-8.6953 3.9102-8.7148 8.7148v17.566c0.015625 4.8086 3.9102 8.6992 8.7148 8.7188h67.352c-12.797-8.9883-23.277-20.988-30.453-35z"/>
</svg>
